ffmpeg started on 2025-05-12 at 21:22:04
Report written to "D:\Convert\FFMetrics\reports\ssim_report-6.txt"
Log level: 32
Command line:
ffmpeg -hide_banner -nostdin -i "G:\\\xc0\xed\xe8\xec\xe5\\\xce\xed\xe3\xee\xe8\xed\xe3\xe8\\!_35_\xcb\xe5\xf2\xee_2024\\DreamCast-1\\\xd1\xe0\xec\xfb\xe9 \xf1\xe8\xeb\xfc\xed\xfb\xe9 \xe2\xee\xeb\xf8\xe5\xe1\xed\xe8\xea \xe0\xf0\xec\xe8\xe8 \xef\xee\xe2\xe5\xeb\xe8\xf2\xe5\xeb\xff \xe4\xe5\xec\xee\xed\xee\xe2 \xee\xea\xe0\xe7\xe0\xeb\xf1\xff \xf7\xe5\xeb\xee\xe2\xe5\xea\xee\xec\\DC_Maou_Gun_Saikyou_no_Majutsushi_wa_Ningen_datta_07_Telegram_HEVC.mkv" -i "G:\\\xc0\xed\xe8\xec\xe5\\\xce\xed\xe3\xee\xe8\xed\xe3\xe8\\!_35_\xcb\xe5\xf2\xee_2024\\DreamCast-1\\\xd1\xe0\xec\xfb\xe9 \xf1\xe8\xeb\xfc\xed\xfb\xe9 \xe2\xee\xeb\xf8\xe5\xe1\xed\xe8\xea \xe0\xf0\xec\xe8\xe8 \xef\xee\xe2\xe5\xeb\xe8\xf2\xe5\xeb\xff \xe4\xe5\xec\xee\xed\xee\xe2 \xee\xea\xe0\xe7\xe0\xeb\xf1\xff \xf7\xe5\xeb\xee\xe2\xe5\xea\xee\xec\\DC_Maou_Gun_Saikyou_no_Majutsushi_wa_Ningen_datta_07_Telegram.mp4" -lavfi "[0:v]settb=AVTB,setpts=PTS-STARTPTS,format=pix_fmts=yuv420p10,fps=24000/1001,scale=1920:1080:flags=bicubic[main];[1:v]settb=AVTB,setpts=PTS-STARTPTS,format=pix_fmts=yuv420p,fps=24000/1001,scale=1920:1080:flags=bicubic[ref];[main][ref]ssim=eof_action=endall:stats_file='D\\:/Convert/FFMetrics/logs/ssim_logfile-6.txt'" -f null -
Input #0, matroska,webm, from 'G:\Аниме\Онгоинги\!_35_Лето_2024\DreamCast-1\Самый сильный волшебник армии повелителя демонов оказался человеком\DC_Maou_Gun_Saikyou_no_Majutsushi_wa_Ningen_datta_07_Telegram_HEVC.mkv':
  Metadata:
    COMPATIBLE_BRANDS: isomiso2avc1mp41
    MAJOR_BRAND     : isom
    MINOR_VERSION   : 512
    ENCODER         : Lavf61.7.100
  Duration: 00:23:46.77, start: -0.021000, bitrate: 1259 kb/s
  Stream #0:0: Video: hevc (Main 10), yuv420p10le(tv, bt709, progressive), 1920x1080 [SAR 1:1 DAR 16:9], 23.98 fps, 23.98 tbr, 1k tbn (default)
      Metadata:
        HANDLER_NAME    : VideoHandler
        VENDOR_ID       : [0][0][0][0]
        ENCODER         : Lavc61.19.100 libx265
        BPS             : 1061750
        DURATION        : 00:23:46.591708333
        NUMBER_OF_FRAMES: 34204
        NUMBER_OF_BYTES : 189335400
        _STATISTICS_WRITING_APP: mkvpropedit v66.0.0 ('Josie') 64-bit
        _STATISTICS_WRITING_DATE_UTC: 2025-05-10 16:06:48
        _STATISTICS_TAGS: BPS DURATION NUMBER_OF_FRAMES NUMBER_OF_BYTES
  Stream #0:1: Audio: aac (LC), 48000 Hz, stereo, fltp (default)
      Metadata:
        HANDLER_NAME    : SoundHandler
        VENDOR_ID       : [0][0][0][0]
        ENCODER         : Lavc61.19.100 aac
        BPS             : 193923
        DURATION        : 00:23:46.773000000
        NUMBER_OF_FRAMES: 66881
        NUMBER_OF_BYTES : 34585661
        _STATISTICS_WRITING_APP: mkvpropedit v66.0.0 ('Josie') 64-bit
        _STATISTICS_WRITING_DATE_UTC: 2025-05-10 16:06:48
        _STATISTICS_TAGS: BPS DURATION NUMBER_OF_FRAMES NUMBER_OF_BYTES
Input #1, mov,mp4,m4a,3gp,3g2,mj2, from 'G:\Аниме\Онгоинги\!_35_Лето_2024\DreamCast-1\Самый сильный волшебник армии повелителя демонов оказался человеком\DC_Maou_Gun_Saikyou_no_Majutsushi_wa_Ningen_datta_07_Telegram.mp4':
  Metadata:
    major_brand     : isom
    minor_version   : 512
    compatible_brands: isomiso2avc1mp41
    encoder         : Lavf61.1.100
  Duration: 00:23:46.72, start: 0.000000, bitrate: 3670 kb/s
  Stream #1:0[0x1](und): Video: h264 (High) (avc1 / 0x31637661), yuv420p(tv, bt709, progressive), 1920x1080 [SAR 1:1 DAR 16:9], 3522 kb/s, 23.98 fps, 23.98 tbr, 24k tbn (default)
      Metadata:
        handler_name    : VideoHandler
        vendor_id       : [0][0][0][0]
        encoder         : Lavc61.3.100 h264_qsv
  Stream #1:1[0x2](und): Audio: aac (HE-AACv2) (mp4a / 0x6134706D), 48000 Hz, stereo, fltp, 144 kb/s (default)
      Metadata:
        handler_name    : SoundHandler
        vendor_id       : [0][0][0][0]
Stream mapping:
  Stream #0:0 (hevc) -> settb:default
  Stream #1:0 (h264) -> settb:default
  ssim:default -> Stream #0:0 (wrapped_avframe)
  Stream #0:1 -> #0:1 (aac (native) -> pcm_s16le (native))
Output #0, null, to 'pipe:':
  Metadata:
    COMPATIBLE_BRANDS: isomiso2avc1mp41
    MAJOR_BRAND     : isom
    MINOR_VERSION   : 512
    encoder         : Lavf61.7.100
  Stream #0:0: Video: wrapped_avframe, yuv420p10le(tv, bt709, progressive), 1920x1080 [SAR 1:1 DAR 16:9], q=2-31, 200 kb/s, 23.98 fps, 23.98 tbn
      Metadata:
        encoder         : Lavc61.19.100 wrapped_avframe
  Stream #0:1: Audio: pcm_s16le, 48000 Hz, stereo, s16, 1536 kb/s (default)
      Metadata:
        HANDLER_NAME    : SoundHandler
        VENDOR_ID       : [0][0][0][0]
        _STATISTICS_TAGS: BPS DURATION NUMBER_OF_FRAMES NUMBER_OF_BYTES
        BPS             : 193923
        DURATION        : 00:23:46.773000000
        NUMBER_OF_FRAMES: 66881
        NUMBER_OF_BYTES : 34585661
        _STATISTICS_WRITING_APP: mkvpropedit v66.0.0 ('Josie') 64-bit
        _STATISTICS_WRITING_DATE_UTC: 2025-05-10 16:06:48
        encoder         : Lavc61.19.100 pcm_s16le
frame=  170 fps=0.0 q=-0.0 size=N/A time=00:00:07.09 bitrate=N/A speed=13.5x    frame=  384 fps=373 q=-0.0 size=N/A time=00:00:16.01 bitrate=N/A speed=15.6x    frame=  644 fps=416 q=-0.0 size=N/A time=00:00:26.86 bitrate=N/A speed=17.3x    frame=  855 fps=413 q=-0.0 size=N/A time=00:00:35.66 bitrate=N/A speed=17.2x    frame= 1095 fps=425 q=-0.0 size=N/A time=00:00:45.67 bitrate=N/A speed=17.7x    frame= 1327 fps=428 q=-0.0 size=N/A time=00:00:55.34 bitrate=N/A speed=17.9x    frame= 1559 fps=432 q=-0.0 size=N/A time=00:01:05.02 bitrate=N/A speed=  18x    frame= 1795 fps=435 q=-0.0 size=N/A time=00:01:14.86 bitrate=N/A speed=18.1x    frame= 2023 fps=436 q=-0.0 size=N/A time=00:01:24.37 bitrate=N/A speed=18.2x    frame= 2262 fps=438 q=-0.0 size=N/A time=00:01:34.34 bitrate=N/A speed=18.3x    frame= 2480 fps=437 q=-0.0 size=N/A time=00:01:43.43 bitrate=N/A speed=18.2x    frame= 2684 fps=433 q=-0.0 size=N/A time=00:01:51.94 bitrate=N/A speed=18.1x    frame= 2885 fps=430 q=-0.0 size=N/A time=00:02:00.32 bitrate=N/A speed=17.9x    frame= 3125 fps=433 q=-0.0 size=N/A time=00:02:10.33 bitrate=N/A speed=18.1x    frame= 3354 fps=434 q=-0.0 size=N/A time=00:02:19.88 bitrate=N/A speed=18.1x    frame= 3564 fps=432 q=-0.0 size=N/A time=00:02:28.64 bitrate=N/A speed=  18x    frame= 3759 fps=429 q=-0.0 size=N/A time=00:02:36.78 bitrate=N/A speed=17.9x    frame= 3981 fps=429 q=-0.0 size=N/A time=00:02:46.04 bitrate=N/A speed=17.9x    frame= 4199 fps=428 q=-0.0 size=N/A time=00:02:55.13 bitrate=N/A speed=17.9x    frame= 4453 fps=432 q=-0.0 size=N/A time=00:03:05.72 bitrate=N/A speed=  18x    frame= 4678 fps=432 q=-0.0 size=N/A time=00:03:15.11 bitrate=N/A speed=  18x    frame= 4880 fps=430 q=-0.0 size=N/A time=00:03:23.53 bitrate=N/A speed=17.9x    frame= 5027 fps=424 q=-0.0 size=N/A time=00:03:29.66 bitrate=N/A speed=17.7x    frame= 5218 fps=422 q=-0.0 size=N/A time=00:03:37.63 bitrate=N/A speed=17.6x    frame= 5466 fps=424 q=-0.0 size=N/A time=00:03:47.97 bitrate=N/A speed=17.7x    frame= 5715 fps=426 q=-0.0 size=N/A time=00:03:58.36 bitrate=N/A speed=17.8x    frame= 5948 fps=427 q=-0.0 size=N/A time=00:04:08.08 bitrate=N/A speed=17.8x    frame= 6192 fps=429 q=-0.0 size=N/A time=00:04:18.25 bitrate=N/A speed=17.9x    frame= 6441 fps=431 q=-0.0 size=N/A time=00:04:28.64 bitrate=N/A speed=  18x    frame= 6681 fps=432 q=-0.0 size=N/A time=00:04:38.65 bitrate=N/A speed=  18x    frame= 6936 fps=434 q=-0.0 size=N/A time=00:04:49.28 bitrate=N/A speed=18.1x    frame= 7196 fps=436 q=-0.0 size=N/A time=00:05:00.13 bitrate=N/A speed=18.2x    frame= 7464 fps=438 q=-0.0 size=N/A time=00:05:11.31 bitrate=N/A speed=18.3x    frame= 7705 fps=439 q=-0.0 size=N/A time=00:05:21.36 bitrate=N/A speed=18.3x    frame= 7944 fps=440 q=-0.0 size=N/A time=00:05:31.33 bitrate=N/A speed=18.3x    frame= 8201 fps=441 q=-0.0 size=N/A time=00:05:42.05 bitrate=N/A speed=18.4x    frame= 8445 fps=442 q=-0.0 size=N/A time=00:05:52.22 bitrate=N/A speed=18.4x    frame= 8704 fps=444 q=-0.0 size=N/A time=00:06:03.02 bitrate=N/A speed=18.5x    frame= 8855 fps=440 q=-0.0 size=N/A time=00:06:09.32 bitrate=N/A speed=18.3x    frame= 9052 fps=438 q=-0.0 size=N/A time=00:06:17.54 bitrate=N/A speed=18.3x    frame= 9252 fps=437 q=-0.0 size=N/A time=00:06:25.88 bitrate=N/A speed=18.2x    frame= 9497 fps=438 q=-0.0 size=N/A time=00:06:36.10 bitrate=N/A speed=18.3x    frame= 9729 fps=438 q=-0.0 size=N/A time=00:06:45.78 bitrate=N/A speed=18.3x    frame= 9995 fps=440 q=-0.0 size=N/A time=00:06:56.87 bitrate=N/A speed=18.4x    frame=10250 fps=441 q=-0.0 size=N/A time=00:07:07.51 bitrate=N/A speed=18.4x    frame=10504 fps=443 q=-0.0 size=N/A time=00:07:18.10 bitrate=N/A speed=18.5x    frame=10752 fps=443 q=-0.0 size=N/A time=00:07:28.44 bitrate=N/A speed=18.5x    frame=11014 fps=445 q=-0.0 size=N/A time=00:07:39.37 bitrate=N/A speed=18.5x    frame=11239 fps=444 q=-0.0 size=N/A time=00:07:48.75 bitrate=N/A speed=18.5x    frame=11485 fps=445 q=-0.0 size=N/A time=00:07:59.02 bitrate=N/A speed=18.6x    frame=11715 fps=445 q=-0.0 size=N/A time=00:08:08.61 bitrate=N/A speed=18.6x    frame=11945 fps=445 q=-0.0 size=N/A time=00:08:18.20 bitrate=N/A speed=18.6x    frame=12165 fps=445 q=-0.0 size=N/A time=00:08:27.38 bitrate=N/A speed=18.6x    frame=12375 fps=444 q=-0.0 size=N/A time=00:08:36.14 bitrate=N/A speed=18.5x    frame=12591 fps=444 q=-0.0 size=N/A time=00:08:45.14 bitrate=N/A speed=18.5x    frame=12820 fps=444 q=-0.0 size=N/A time=00:08:54.70 bitrate=N/A speed=18.5x    frame=13067 fps=444 q=-0.0 size=N/A time=00:09:05.00 bitrate=N/A speed=18.5x    frame=13309 fps=445 q=-0.0 size=N/A time=00:09:15.09 bitrate=N/A speed=18.5x    frame=13552 fps=445 q=-0.0 size=N/A time=00:09:25.23 bitrate=N/A speed=18.6x    frame=13787 fps=445 q=-0.0 size=N/A time=00:09:35.03 bitrate=N/A speed=18.6x    frame=14021 fps=445 q=-0.0 size=N/A time=00:09:44.79 bitrate=N/A speed=18.6x    frame=14216 fps=444 q=-0.0 size=N/A time=00:09:52.92 bitrate=N/A speed=18.5x    frame=14456 fps=444 q=-0.0 size=N/A time=00:10:02.93 bitrate=N/A speed=18.5x    frame=14672 fps=444 q=-0.0 size=N/A time=00:10:11.94 bitrate=N/A speed=18.5x    frame=14904 fps=444 q=-0.0 size=N/A time=00:10:21.62 bitrate=N/A speed=18.5x    frame=15164 fps=445 q=-0.0 size=N/A time=00:10:32.46 bitrate=N/A speed=18.6x    frame=15422 fps=446 q=-0.0 size=N/A time=00:10:43.22 bitrate=N/A speed=18.6x    frame=15662 fps=446 q=-0.0 size=N/A time=00:10:53.23 bitrate=N/A speed=18.6x    frame=15865 fps=445 q=-0.0 size=N/A time=00:11:01.70 bitrate=N/A speed=18.6x    frame=16064 fps=444 q=-0.0 size=N/A time=00:11:10.00 bitrate=N/A speed=18.5x    frame=16283 fps=444 q=-0.0 size=N/A time=00:11:19.13 bitrate=N/A speed=18.5x    frame=16528 fps=445 q=-0.0 size=N/A time=00:11:29.35 bitrate=N/A speed=18.5x    frame=16755 fps=444 q=-0.0 size=N/A time=00:11:38.82 bitrate=N/A speed=18.5x    frame=16947 fps=444 q=-0.0 size=N/A time=00:11:46.83 bitrate=N/A speed=18.5x    frame=17159 fps=443 q=-0.0 size=N/A time=00:11:55.67 bitrate=N/A speed=18.5x    frame=17404 fps=444 q=-0.0 size=N/A time=00:12:05.89 bitrate=N/A speed=18.5x    frame=17661 fps=444 q=-0.0 size=N/A time=00:12:16.61 bitrate=N/A speed=18.5x    frame=17874 fps=444 q=-0.0 size=N/A time=00:12:25.49 bitrate=N/A speed=18.5x    frame=18098 fps=444 q=-0.0 size=N/A time=00:12:34.83 bitrate=N/A speed=18.5x    frame=18328 fps=444 q=-0.0 size=N/A time=00:12:44.43 bitrate=N/A speed=18.5x    frame=18541 fps=443 q=-0.0 size=N/A time=00:12:53.31 bitrate=N/A speed=18.5x    frame=18721 fps=442 q=-0.0 size=N/A time=00:13:00.82 bitrate=N/A speed=18.4x    frame=18941 fps=442 q=-0.0 size=N/A time=00:13:09.99 bitrate=N/A speed=18.4x    frame=19175 fps=442 q=-0.0 size=N/A time=00:13:19.75 bitrate=N/A speed=18.4x    frame=19362 fps=441 q=-0.0 size=N/A time=00:13:27.55 bitrate=N/A speed=18.4x    frame=19539 fps=440 q=-0.0 size=N/A time=00:13:34.93 bitrate=N/A speed=18.4x    frame=19788 fps=441 q=-0.0 size=N/A time=00:13:45.32 bitrate=N/A speed=18.4x    frame=19944 fps=439 q=-0.0 size=N/A time=00:13:51.83 bitrate=N/A speed=18.3x    frame=20097 fps=437 q=-0.0 size=N/A time=00:13:58.21 bitrate=N/A speed=18.2x    frame=20308 fps=437 q=-0.0 size=N/A time=00:14:07.01 bitrate=N/A speed=18.2x    frame=20530 fps=437 q=-0.0 size=N/A time=00:14:16.27 bitrate=N/A speed=18.2x    frame=20724 fps=436 q=-0.0 size=N/A time=00:14:24.36 bitrate=N/A speed=18.2x    frame=20892 fps=435 q=-0.0 size=N/A time=00:14:31.37 bitrate=N/A speed=18.1x    frame=21088 fps=435 q=-0.0 size=N/A time=00:14:39.54 bitrate=N/A speed=18.1x    frame=21330 fps=435 q=-0.0 size=N/A time=00:14:49.63 bitrate=N/A speed=18.1x    frame=21501 fps=434 q=-0.0 size=N/A time=00:14:56.77 bitrate=N/A speed=18.1x    frame=21714 fps=434 q=-0.0 size=N/A time=00:15:05.65 bitrate=N/A speed=18.1x    frame=21955 fps=434 q=-0.0 size=N/A time=00:15:15.70 bitrate=N/A speed=18.1x    frame=22201 fps=434 q=-0.0 size=N/A time=00:15:25.96 bitrate=N/A speed=18.1x    frame=22444 fps=435 q=-0.0 size=N/A time=00:15:36.10 bitrate=N/A speed=18.1x    frame=22646 fps=434 q=-0.0 size=N/A time=00:15:44.52 bitrate=N/A speed=18.1x    frame=22891 fps=435 q=-0.0 size=N/A time=00:15:54.74 bitrate=N/A speed=18.1x    frame=23049 fps=434 q=-0.0 size=N/A time=00:16:01.33 bitrate=N/A speed=18.1x    frame=23279 fps=434 q=-0.0 size=N/A time=00:16:10.92 bitrate=N/A speed=18.1x    frame=23494 fps=433 q=-0.0 size=N/A time=00:16:19.89 bitrate=N/A speed=18.1x    frame=23684 fps=433 q=-0.0 size=N/A time=00:16:27.82 bitrate=N/A speed=18.1x    frame=23865 fps=432 q=-0.0 size=N/A time=00:16:35.36 bitrate=N/A speed=  18x    frame=24085 fps=432 q=-0.0 size=N/A time=00:16:44.54 bitrate=N/A speed=  18x    frame=24328 fps=432 q=-0.0 size=N/A time=00:16:54.68 bitrate=N/A speed=  18x    frame=24572 fps=433 q=-0.0 size=N/A time=00:17:04.85 bitrate=N/A speed=  18x    frame=24796 fps=433 q=-0.0 size=N/A time=00:17:14.19 bitrate=N/A speed=  18x    frame=25029 fps=433 q=-0.0 size=N/A time=00:17:23.91 bitrate=N/A speed=18.1x    frame=25234 fps=433 q=-0.0 size=N/A time=00:17:32.46 bitrate=N/A speed=  18x    frame=25443 fps=432 q=-0.0 size=N/A time=00:17:41.18 bitrate=N/A speed=  18x    frame=25668 fps=432 q=-0.0 size=N/A time=00:17:50.56 bitrate=N/A speed=  18x    frame=25863 fps=432 q=-0.0 size=N/A time=00:17:58.70 bitrate=N/A speed=  18x    frame=26063 fps=432 q=-0.0 size=N/A time=00:18:07.04 bitrate=N/A speed=  18x    frame=26274 fps=431 q=-0.0 size=N/A time=00:18:15.84 bitrate=N/A speed=  18x    frame=26483 fps=431 q=-0.0 size=N/A time=00:18:24.56 bitrate=N/A speed=  18x    frame=26697 fps=431 q=-0.0 size=N/A time=00:18:33.48 bitrate=N/A speed=  18x    frame=26917 fps=431 q=-0.0 size=N/A time=00:18:42.66 bitrate=N/A speed=  18x    frame=27134 fps=431 q=-0.0 size=N/A time=00:18:51.71 bitrate=N/A speed=  18x    frame=27336 fps=431 q=-0.0 size=N/A time=00:19:00.13 bitrate=N/A speed=  18x    frame=27569 fps=431 q=-0.0 size=N/A time=00:19:09.85 bitrate=N/A speed=  18x    frame=27813 fps=431 q=-0.0 size=N/A time=00:19:20.03 bitrate=N/A speed=  18x    frame=28042 fps=431 q=-0.0 size=N/A time=00:19:29.58 bitrate=N/A speed=  18x    frame=28281 fps=431 q=-0.0 size=N/A time=00:19:39.55 bitrate=N/A speed=  18x    frame=28507 fps=431 q=-0.0 size=N/A time=00:19:48.97 bitrate=N/A speed=  18x    frame=28739 fps=432 q=-0.0 size=N/A time=00:19:58.65 bitrate=N/A speed=  18x    frame=28991 fps=432 q=-0.0 size=N/A time=00:20:09.16 bitrate=N/A speed=  18x    frame=29214 fps=432 q=-0.0 size=N/A time=00:20:18.46 bitrate=N/A speed=  18x    frame=29445 fps=432 q=-0.0 size=N/A time=00:20:28.10 bitrate=N/A speed=  18x    frame=29677 fps=432 q=-0.0 size=N/A time=00:20:37.77 bitrate=N/A speed=  18x    frame=29904 fps=432 q=-0.0 size=N/A time=00:20:47.24 bitrate=N/A speed=  18x    frame=30124 fps=432 q=-0.0 size=N/A time=00:20:56.42 bitrate=N/A speed=  18x    frame=30362 fps=433 q=-0.0 size=N/A time=00:21:06.34 bitrate=N/A speed=  18x    frame=30610 fps=433 q=-0.0 size=N/A time=00:21:16.69 bitrate=N/A speed=18.1x    frame=30827 fps=433 q=-0.0 size=N/A time=00:21:25.74 bitrate=N/A speed=18.1x    frame=31053 fps=433 q=-0.0 size=N/A time=00:21:35.16 bitrate=N/A speed=18.1x    frame=31284 fps=433 q=-0.0 size=N/A time=00:21:44.80 bitrate=N/A speed=18.1x    frame=31492 fps=433 q=-0.0 size=N/A time=00:21:53.47 bitrate=N/A speed=  18x    frame=31712 fps=433 q=-0.0 size=N/A time=00:22:02.65 bitrate=N/A speed=  18x    frame=31915 fps=432 q=-0.0 size=N/A time=00:22:11.12 bitrate=N/A speed=  18x    frame=32068 fps=431 q=-0.0 size=N/A time=00:22:17.50 bitrate=N/A speed=  18x    frame=32247 fps=431 q=-0.0 size=N/A time=00:22:24.96 bitrate=N/A speed=  18x    frame=32439 fps=431 q=-0.0 size=N/A time=00:22:32.97 bitrate=N/A speed=  18x    frame=32622 fps=430 q=-0.0 size=N/A time=00:22:40.60 bitrate=N/A speed=17.9x    frame=32803 fps=430 q=-0.0 size=N/A time=00:22:48.15 bitrate=N/A speed=17.9x    frame=32978 fps=429 q=-0.0 size=N/A time=00:22:55.45 bitrate=N/A speed=17.9x    frame=33156 fps=428 q=-0.0 size=N/A time=00:23:02.88 bitrate=N/A speed=17.9x    frame=33338 fps=428 q=-0.0 size=N/A time=00:23:10.47 bitrate=N/A speed=17.8x    frame=33508 fps=427 q=-0.0 size=N/A time=00:23:17.56 bitrate=N/A speed=17.8x    frame=33689 fps=427 q=-0.0 size=N/A time=00:23:25.11 bitrate=N/A speed=17.8x    frame=33893 fps=426 q=-0.0 size=N/A time=00:23:33.62 bitrate=N/A speed=17.8x    frame=34092 fps=426 q=-0.0 size=N/A time=00:23:41.92 bitrate=N/A speed=17.8x    [Parsed_ssim_10 @ 000001936af4de80] SSIM Y:0.994764 (22.809709) U:0.992191 (21.073901) V:0.993029 (21.567003) All:0.994046 (22.251698)
[out#0/null @ 000001935de7f5c0] video:14697KiB audio:267524KiB subtitle:0KiB other streams:0KiB global headers:0KiB muxing overhead: unknown
frame=34204 fps=426 q=-0.0 Lsize=N/A time=00:23:46.59 bitrate=N/A speed=17.8x    
